# xmcd CD database file
#
# Track frame offsets:
#	150
#	9760
#	30702
#	44320
#	62125
#	83867
#	96327
#	111255
#	124890
#	138600
#	151197
#	172577
#	192192
#	208082
#	219550
#	244750
#
# Disc length: 3793 seconds
#
# Revision: 21
# Processed by: cddbd v1.5.2PL0 Copyright (c) Steve Scherf et al.
# Submitted via: CDex 1.83
#
DISCID=d70ecf10
DTITLE=Various / Forrest Gump The Soundtrack, Disc 2
DYEAR=1994
DGENRE=Soundtrack
TTITLE0=Jefferson Airplane / Volunteers
TTITLE1=The Youngbloods / Let's Get Together
TTITLE2=Scott Mckenzie / San Francisco
TTITLE3=The Byrds / Turn! Turn! Turn! 
TTITLE4=The Fifth Dimension / Aquarius - Let The Sunshine In
TTITLE5=Harry Nilsson / Everybody's Talkin'
TTITLE6=Three Dog Night / Joy To The World
TTITLE7=The Supremes / Stoned Love
TTITLE8=B.J. Thomas / Raindrops Keep Falling On My Head
TTITLE9=Randy Newman / Mr. President 
TTITLE10=Lynrd Skynrd / Sweet Home Alabama
TTITLE11=The Doobie Brothers / It Keeps You Runnin'
TTITLE12=Gladys Knight & The Pips / I've Got To Use My Imagination
TTITLE13=Willie Nelson / On The Road Again
TTITLE14=Bob Seger & The Silver Bullet Band / Against The Wind
TTITLE15=Alan Silvestri / Forrest Gump Suite
EXTD= YEAR: 1994
EXTT0=
EXTT1=
EXTT2=
EXTT3=
EXTT4=
EXTT5=
EXTT6=
EXTT7=
EXTT8=
EXTT9=
EXTT10=
EXTT11=
EXTT12=
EXTT13=
EXTT14=
EXTT15=
PLAYORDER=
.
